<mxfile host="app.diagrams.net" modified="2022-06-18T14:27:28.558Z" agent="5.0 (Windows NT 10.0; Win64; x64) AppleWebKit/537.36 (KHTML, like Gecko) Chrome/102.0.0.0 Safari/537.36" etag="5KD2zd7C9eHP0k5CIway" version="20.0.1" type="github">
  <diagram id="sCAbLjGPMe6iRs3PfZDn" name="Page-1">
    <mxGraphModel dx="546" dy="253" grid="1" gridSize="10" guides="1" tooltips="1" connect="1" arrows="1" fold="1" page="1" pageScale="1" pageWidth="827" pageHeight="1169" math="0" shadow="0">
      <root>
        <mxCell id="0" />
        <mxCell id="1" parent="0" />
        <mxCell id="i2tNPv83OjAkMCDNKR-X-139" value="" style="edgeStyle=orthogonalEdgeStyle;fontSize=12;html=1;endArrow=ERzeroToMany;endFill=1;rounded=0;exitX=0;exitY=0.5;exitDx=0;exitDy=0;entryX=0;entryY=0.5;entryDx=0;entryDy=0;" parent="1" source="i2tNPv83OjAkMCDNKR-X-77" edge="1" target="i2tNPv83OjAkMCDNKR-X-58">
          <mxGeometry width="100" height="100" relative="1" as="geometry">
            <mxPoint x="500" y="430" as="sourcePoint" />
            <mxPoint x="510" y="490" as="targetPoint" />
            <Array as="points">
              <mxPoint x="440" y="420" />
              <mxPoint x="440" y="560" />
            </Array>
          </mxGeometry>
        </mxCell>
        <mxCell id="i2tNPv83OjAkMCDNKR-X-2" value="Pembimbing" style="rounded=0;whiteSpace=wrap;html=1;fillColor=#99CCFF;" parent="1" vertex="1">
          <mxGeometry x="170" y="230" width="120" height="60" as="geometry" />
        </mxCell>
        <mxCell id="I7K3LM8rK5Hawv72wFrH-2" style="edgeStyle=orthogonalEdgeStyle;rounded=0;orthogonalLoop=1;jettySize=auto;html=1;" edge="1" parent="1" source="i2tNPv83OjAkMCDNKR-X-7">
          <mxGeometry relative="1" as="geometry">
            <mxPoint x="220" y="230" as="targetPoint" />
            <Array as="points">
              <mxPoint x="220" y="65" />
              <mxPoint x="220" y="230" />
            </Array>
          </mxGeometry>
        </mxCell>
        <mxCell id="i2tNPv83OjAkMCDNKR-X-7" value="Nama" style="ellipse;whiteSpace=wrap;html=1;fillColor=#B9E0A5;" parent="1" vertex="1">
          <mxGeometry x="90" y="40" width="110" height="50" as="geometry" />
        </mxCell>
        <mxCell id="i2tNPv83OjAkMCDNKR-X-28" style="edgeStyle=orthogonalEdgeStyle;rounded=0;orthogonalLoop=1;jettySize=auto;html=1;exitX=1;exitY=0.5;exitDx=0;exitDy=0;" parent="1" source="i2tNPv83OjAkMCDNKR-X-8" edge="1">
          <mxGeometry relative="1" as="geometry">
            <mxPoint x="200" y="230" as="targetPoint" />
            <Array as="points">
              <mxPoint x="200" y="185" />
              <mxPoint x="200" y="230" />
            </Array>
          </mxGeometry>
        </mxCell>
        <mxCell id="i2tNPv83OjAkMCDNKR-X-8" value="ID pembimbing" style="ellipse;whiteSpace=wrap;html=1;fillColor=#B9E0A5;" parent="1" vertex="1">
          <mxGeometry x="40" y="160" width="110" height="50" as="geometry" />
        </mxCell>
        <mxCell id="I7K3LM8rK5Hawv72wFrH-3" style="edgeStyle=orthogonalEdgeStyle;rounded=0;orthogonalLoop=1;jettySize=auto;html=1;entryX=0.57;entryY=0.019;entryDx=0;entryDy=0;entryPerimeter=0;" edge="1" parent="1" source="i2tNPv83OjAkMCDNKR-X-9" target="i2tNPv83OjAkMCDNKR-X-2">
          <mxGeometry relative="1" as="geometry">
            <Array as="points">
              <mxPoint x="238" y="65" />
              <mxPoint x="238" y="160" />
            </Array>
          </mxGeometry>
        </mxCell>
        <mxCell id="i2tNPv83OjAkMCDNKR-X-9" value="Jenis Kelamin" style="ellipse;whiteSpace=wrap;html=1;fillColor=#B9E0A5;" parent="1" vertex="1">
          <mxGeometry x="260" y="40" width="110" height="50" as="geometry" />
        </mxCell>
        <mxCell id="I7K3LM8rK5Hawv72wFrH-1" style="edgeStyle=orthogonalEdgeStyle;rounded=0;orthogonalLoop=1;jettySize=auto;html=1;" edge="1" parent="1" source="i2tNPv83OjAkMCDNKR-X-10">
          <mxGeometry relative="1" as="geometry">
            <mxPoint x="250" y="230" as="targetPoint" />
            <Array as="points">
              <mxPoint x="250" y="125" />
              <mxPoint x="250" y="230" />
            </Array>
          </mxGeometry>
        </mxCell>
        <mxCell id="i2tNPv83OjAkMCDNKR-X-10" value="Kontak" style="ellipse;whiteSpace=wrap;html=1;fillColor=#B9E0A5;" parent="1" vertex="1">
          <mxGeometry x="300" y="100" width="110" height="50" as="geometry" />
        </mxCell>
        <mxCell id="i2tNPv83OjAkMCDNKR-X-33" style="edgeStyle=orthogonalEdgeStyle;rounded=0;orthogonalLoop=1;jettySize=auto;html=1;exitX=0;exitY=0.5;exitDx=0;exitDy=0;" parent="1" source="i2tNPv83OjAkMCDNKR-X-11" edge="1">
          <mxGeometry relative="1" as="geometry">
            <mxPoint x="260" y="230" as="targetPoint" />
            <Array as="points">
              <mxPoint x="260" y="185" />
              <mxPoint x="260" y="230" />
            </Array>
          </mxGeometry>
        </mxCell>
        <mxCell id="i2tNPv83OjAkMCDNKR-X-11" value="Alamat" style="ellipse;whiteSpace=wrap;html=1;fillColor=#B9E0A5;" parent="1" vertex="1">
          <mxGeometry x="320" y="160" width="110" height="50" as="geometry" />
        </mxCell>
        <mxCell id="i2tNPv83OjAkMCDNKR-X-41" style="edgeStyle=orthogonalEdgeStyle;rounded=0;orthogonalLoop=1;jettySize=auto;html=1;exitX=1;exitY=0.5;exitDx=0;exitDy=0;" parent="1" source="i2tNPv83OjAkMCDNKR-X-35" edge="1">
          <mxGeometry relative="1" as="geometry">
            <mxPoint x="210" y="230" as="targetPoint" />
            <Array as="points">
              <mxPoint x="210" y="125" />
              <mxPoint x="210" y="230" />
            </Array>
          </mxGeometry>
        </mxCell>
        <mxCell id="i2tNPv83OjAkMCDNKR-X-35" value="Kode Kelas" style="ellipse;whiteSpace=wrap;html=1;fillColor=#B9E0A5;" parent="1" vertex="1">
          <mxGeometry x="70" y="100" width="110" height="50" as="geometry" />
        </mxCell>
        <mxCell id="i2tNPv83OjAkMCDNKR-X-42" value="Santri" style="rounded=0;whiteSpace=wrap;html=1;fillColor=#99CCFF;" parent="1" vertex="1">
          <mxGeometry x="605" y="230" width="120" height="60" as="geometry" />
        </mxCell>
        <mxCell id="I7K3LM8rK5Hawv72wFrH-6" style="edgeStyle=orthogonalEdgeStyle;rounded=0;orthogonalLoop=1;jettySize=auto;html=1;" edge="1" parent="1" source="i2tNPv83OjAkMCDNKR-X-44">
          <mxGeometry relative="1" as="geometry">
            <mxPoint x="650" y="230" as="targetPoint" />
            <Array as="points">
              <mxPoint x="650" y="65" />
              <mxPoint x="650" y="230" />
            </Array>
          </mxGeometry>
        </mxCell>
        <mxCell id="i2tNPv83OjAkMCDNKR-X-44" value="Nama" style="ellipse;whiteSpace=wrap;html=1;fillColor=#B9E0A5;" parent="1" vertex="1">
          <mxGeometry x="520" y="40" width="110" height="50" as="geometry" />
        </mxCell>
        <mxCell id="i2tNPv83OjAkMCDNKR-X-45" style="edgeStyle=orthogonalEdgeStyle;rounded=0;orthogonalLoop=1;jettySize=auto;html=1;" parent="1" source="i2tNPv83OjAkMCDNKR-X-46" edge="1">
          <mxGeometry relative="1" as="geometry">
            <mxPoint x="630" y="230" as="targetPoint" />
            <Array as="points">
              <mxPoint x="630" y="185" />
              <mxPoint x="630" y="230" />
            </Array>
          </mxGeometry>
        </mxCell>
        <mxCell id="i2tNPv83OjAkMCDNKR-X-46" value="ID santri" style="ellipse;whiteSpace=wrap;html=1;fillColor=#B9E0A5;" parent="1" vertex="1">
          <mxGeometry x="470" y="160" width="110" height="50" as="geometry" />
        </mxCell>
        <mxCell id="I7K3LM8rK5Hawv72wFrH-7" style="edgeStyle=orthogonalEdgeStyle;rounded=0;orthogonalLoop=1;jettySize=auto;html=1;entryX=0.604;entryY=-0.012;entryDx=0;entryDy=0;entryPerimeter=0;" edge="1" parent="1" source="i2tNPv83OjAkMCDNKR-X-48" target="i2tNPv83OjAkMCDNKR-X-42">
          <mxGeometry relative="1" as="geometry">
            <Array as="points">
              <mxPoint x="677" y="65" />
              <mxPoint x="677" y="160" />
            </Array>
          </mxGeometry>
        </mxCell>
        <mxCell id="i2tNPv83OjAkMCDNKR-X-48" value="Jenis Kelamin" style="ellipse;whiteSpace=wrap;html=1;fillColor=#B9E0A5;" parent="1" vertex="1">
          <mxGeometry x="710" y="40" width="110" height="50" as="geometry" />
        </mxCell>
        <mxCell id="I7K3LM8rK5Hawv72wFrH-8" style="edgeStyle=orthogonalEdgeStyle;rounded=0;orthogonalLoop=1;jettySize=auto;html=1;" edge="1" parent="1" source="i2tNPv83OjAkMCDNKR-X-50">
          <mxGeometry relative="1" as="geometry">
            <mxPoint x="690" y="230" as="targetPoint" />
            <Array as="points">
              <mxPoint x="690" y="125" />
              <mxPoint x="690" y="190" />
              <mxPoint x="689" y="190" />
            </Array>
          </mxGeometry>
        </mxCell>
        <mxCell id="i2tNPv83OjAkMCDNKR-X-50" value="Kontak" style="ellipse;whiteSpace=wrap;html=1;fillColor=#B9E0A5;" parent="1" vertex="1">
          <mxGeometry x="725" y="100" width="110" height="50" as="geometry" />
        </mxCell>
        <mxCell id="i2tNPv83OjAkMCDNKR-X-51" style="edgeStyle=orthogonalEdgeStyle;rounded=0;orthogonalLoop=1;jettySize=auto;html=1;exitX=0;exitY=0.5;exitDx=0;exitDy=0;" parent="1" source="i2tNPv83OjAkMCDNKR-X-52" edge="1">
          <mxGeometry relative="1" as="geometry">
            <mxPoint x="700" y="230" as="targetPoint" />
            <Array as="points">
              <mxPoint x="700" y="185" />
              <mxPoint x="700" y="230" />
            </Array>
          </mxGeometry>
        </mxCell>
        <mxCell id="i2tNPv83OjAkMCDNKR-X-52" value="Alamat" style="ellipse;whiteSpace=wrap;html=1;fillColor=#B9E0A5;" parent="1" vertex="1">
          <mxGeometry x="750" y="160" width="110" height="50" as="geometry" />
        </mxCell>
        <mxCell id="i2tNPv83OjAkMCDNKR-X-53" style="edgeStyle=orthogonalEdgeStyle;rounded=0;orthogonalLoop=1;jettySize=auto;html=1;exitX=1;exitY=0.5;exitDx=0;exitDy=0;" parent="1" source="i2tNPv83OjAkMCDNKR-X-54" edge="1">
          <mxGeometry relative="1" as="geometry">
            <mxPoint x="640" y="231" as="targetPoint" />
            <Array as="points">
              <mxPoint x="640" y="125" />
              <mxPoint x="640" y="231" />
            </Array>
          </mxGeometry>
        </mxCell>
        <mxCell id="i2tNPv83OjAkMCDNKR-X-54" value="ID pembimbing" style="ellipse;whiteSpace=wrap;html=1;fillColor=#B9E0A5;" parent="1" vertex="1">
          <mxGeometry x="495" y="100" width="110" height="50" as="geometry" />
        </mxCell>
        <mxCell id="i2tNPv83OjAkMCDNKR-X-55" value="Menerima Setoran" style="rhombus;whiteSpace=wrap;html=1;fillColor=#FFF2CC;" parent="1" vertex="1">
          <mxGeometry x="400" y="220" width="130" height="80" as="geometry" />
        </mxCell>
        <mxCell id="i2tNPv83OjAkMCDNKR-X-58" value="Setoran" style="rounded=0;whiteSpace=wrap;html=1;fillColor=#99CCFF;" parent="1" vertex="1">
          <mxGeometry x="510" y="530" width="120" height="60" as="geometry" />
        </mxCell>
        <mxCell id="I7K3LM8rK5Hawv72wFrH-12" style="edgeStyle=orthogonalEdgeStyle;rounded=0;orthogonalLoop=1;jettySize=auto;html=1;entryX=0.553;entryY=1.018;entryDx=0;entryDy=0;entryPerimeter=0;" edge="1" parent="1" source="i2tNPv83OjAkMCDNKR-X-60" target="i2tNPv83OjAkMCDNKR-X-58">
          <mxGeometry relative="1" as="geometry">
            <Array as="points">
              <mxPoint x="576" y="695" />
            </Array>
          </mxGeometry>
        </mxCell>
        <mxCell id="i2tNPv83OjAkMCDNKR-X-60" value="Waktu Setoran" style="ellipse;whiteSpace=wrap;html=1;fillColor=#B9E0A5;" parent="1" vertex="1">
          <mxGeometry x="590" y="670" width="110" height="50" as="geometry" />
        </mxCell>
        <mxCell id="I7K3LM8rK5Hawv72wFrH-9" style="edgeStyle=orthogonalEdgeStyle;rounded=0;orthogonalLoop=1;jettySize=auto;html=1;entryX=0.25;entryY=1;entryDx=0;entryDy=0;" edge="1" parent="1" source="i2tNPv83OjAkMCDNKR-X-62" target="i2tNPv83OjAkMCDNKR-X-58">
          <mxGeometry relative="1" as="geometry">
            <Array as="points">
              <mxPoint x="540" y="635" />
            </Array>
          </mxGeometry>
        </mxCell>
        <mxCell id="i2tNPv83OjAkMCDNKR-X-62" value="ID setoran" style="ellipse;whiteSpace=wrap;html=1;fillColor=#B9E0A5;" parent="1" vertex="1">
          <mxGeometry x="400" y="610" width="110" height="50" as="geometry" />
        </mxCell>
        <mxCell id="I7K3LM8rK5Hawv72wFrH-10" style="edgeStyle=orthogonalEdgeStyle;rounded=0;orthogonalLoop=1;jettySize=auto;html=1;entryX=0.667;entryY=1;entryDx=0;entryDy=0;entryPerimeter=0;" edge="1" parent="1" source="i2tNPv83OjAkMCDNKR-X-64" target="i2tNPv83OjAkMCDNKR-X-58">
          <mxGeometry relative="1" as="geometry">
            <Array as="points">
              <mxPoint x="590" y="635" />
            </Array>
          </mxGeometry>
        </mxCell>
        <mxCell id="i2tNPv83OjAkMCDNKR-X-64" value="Keterangan" style="ellipse;whiteSpace=wrap;html=1;fillColor=#B9E0A5;" parent="1" vertex="1">
          <mxGeometry x="615" y="610" width="110" height="50" as="geometry" />
        </mxCell>
        <mxCell id="I7K3LM8rK5Hawv72wFrH-11" style="edgeStyle=orthogonalEdgeStyle;rounded=0;orthogonalLoop=1;jettySize=auto;html=1;entryX=0.401;entryY=1.002;entryDx=0;entryDy=0;entryPerimeter=0;" edge="1" parent="1" source="i2tNPv83OjAkMCDNKR-X-70" target="i2tNPv83OjAkMCDNKR-X-58">
          <mxGeometry relative="1" as="geometry">
            <Array as="points">
              <mxPoint x="558" y="695" />
            </Array>
          </mxGeometry>
        </mxCell>
        <mxCell id="i2tNPv83OjAkMCDNKR-X-70" value="ID santri" style="ellipse;whiteSpace=wrap;html=1;fillColor=#B9E0A5;" parent="1" vertex="1">
          <mxGeometry x="430" y="670" width="110" height="50" as="geometry" />
        </mxCell>
        <mxCell id="i2tNPv83OjAkMCDNKR-X-77" value="Menyetorkan" style="rhombus;whiteSpace=wrap;html=1;fillColor=#FFF2CC;" parent="1" vertex="1">
          <mxGeometry x="500" y="380" width="130" height="80" as="geometry" />
        </mxCell>
        <mxCell id="i2tNPv83OjAkMCDNKR-X-81" value="Item Setoran" style="rounded=0;whiteSpace=wrap;html=1;fillColor=#99CCFF;" parent="1" vertex="1">
          <mxGeometry x="920" y="530" width="120" height="60" as="geometry" />
        </mxCell>
        <mxCell id="i2tNPv83OjAkMCDNKR-X-105" style="edgeStyle=orthogonalEdgeStyle;rounded=0;orthogonalLoop=1;jettySize=auto;html=1;exitX=0;exitY=0.5;exitDx=0;exitDy=0;entryX=0.5;entryY=1;entryDx=0;entryDy=0;" parent="1" source="i2tNPv83OjAkMCDNKR-X-83" target="i2tNPv83OjAkMCDNKR-X-81" edge="1">
          <mxGeometry relative="1" as="geometry" />
        </mxCell>
        <mxCell id="i2tNPv83OjAkMCDNKR-X-83" value="ID ayat" style="ellipse;whiteSpace=wrap;html=1;fillColor=#B9E0A5;" parent="1" vertex="1">
          <mxGeometry x="1000" y="610" width="110" height="50" as="geometry" />
        </mxCell>
        <mxCell id="i2tNPv83OjAkMCDNKR-X-104" style="edgeStyle=orthogonalEdgeStyle;rounded=0;orthogonalLoop=1;jettySize=auto;html=1;exitX=1;exitY=0.5;exitDx=0;exitDy=0;entryX=0.417;entryY=1;entryDx=0;entryDy=0;entryPerimeter=0;" parent="1" source="i2tNPv83OjAkMCDNKR-X-85" target="i2tNPv83OjAkMCDNKR-X-81" edge="1">
          <mxGeometry relative="1" as="geometry">
            <Array as="points">
              <mxPoint x="970" y="635" />
            </Array>
          </mxGeometry>
        </mxCell>
        <mxCell id="i2tNPv83OjAkMCDNKR-X-85" value="ID setoran" style="ellipse;whiteSpace=wrap;html=1;fillColor=#B9E0A5;" parent="1" vertex="1">
          <mxGeometry x="845" y="610" width="110" height="50" as="geometry" />
        </mxCell>
        <mxCell id="i2tNPv83OjAkMCDNKR-X-90" value="Ayat" style="rounded=0;whiteSpace=wrap;html=1;fillColor=#99CCFF;" parent="1" vertex="1">
          <mxGeometry x="1006" y="330" width="120" height="60" as="geometry" />
        </mxCell>
        <mxCell id="I7K3LM8rK5Hawv72wFrH-16" style="edgeStyle=orthogonalEdgeStyle;rounded=0;orthogonalLoop=1;jettySize=auto;html=1;" edge="1" parent="1" source="i2tNPv83OjAkMCDNKR-X-92">
          <mxGeometry relative="1" as="geometry">
            <mxPoint x="1070" y="330" as="targetPoint" />
            <Array as="points">
              <mxPoint x="1070" y="210" />
              <mxPoint x="1070" y="210" />
            </Array>
          </mxGeometry>
        </mxCell>
        <mxCell id="i2tNPv83OjAkMCDNKR-X-92" value="Nomor Ayat" style="ellipse;whiteSpace=wrap;html=1;fillColor=#B9E0A5;" parent="1" vertex="1">
          <mxGeometry x="1011" y="150" width="110" height="50" as="geometry" />
        </mxCell>
        <mxCell id="I7K3LM8rK5Hawv72wFrH-18" style="edgeStyle=orthogonalEdgeStyle;rounded=0;orthogonalLoop=1;jettySize=auto;html=1;entryX=0.317;entryY=0.008;entryDx=0;entryDy=0;entryPerimeter=0;" edge="1" parent="1" source="i2tNPv83OjAkMCDNKR-X-94" target="i2tNPv83OjAkMCDNKR-X-90">
          <mxGeometry relative="1" as="geometry">
            <Array as="points">
              <mxPoint x="1044" y="285" />
            </Array>
          </mxGeometry>
        </mxCell>
        <mxCell id="i2tNPv83OjAkMCDNKR-X-94" value="ID ayat" style="ellipse;whiteSpace=wrap;html=1;fillColor=#B9E0A5;" parent="1" vertex="1">
          <mxGeometry x="910" y="260" width="110" height="50" as="geometry" />
        </mxCell>
        <mxCell id="I7K3LM8rK5Hawv72wFrH-17" style="edgeStyle=orthogonalEdgeStyle;rounded=0;orthogonalLoop=1;jettySize=auto;html=1;entryX=0.703;entryY=0.017;entryDx=0;entryDy=0;entryPerimeter=0;" edge="1" parent="1" source="i2tNPv83OjAkMCDNKR-X-96" target="i2tNPv83OjAkMCDNKR-X-90">
          <mxGeometry relative="1" as="geometry">
            <Array as="points">
              <mxPoint x="1090" y="285" />
            </Array>
          </mxGeometry>
        </mxCell>
        <mxCell id="i2tNPv83OjAkMCDNKR-X-96" value="Halaman" style="ellipse;whiteSpace=wrap;html=1;fillColor=#B9E0A5;" parent="1" vertex="1">
          <mxGeometry x="1110" y="260" width="110" height="50" as="geometry" />
        </mxCell>
        <mxCell id="I7K3LM8rK5Hawv72wFrH-15" style="edgeStyle=orthogonalEdgeStyle;rounded=0;orthogonalLoop=1;jettySize=auto;html=1;entryX=0.432;entryY=0.008;entryDx=0;entryDy=0;entryPerimeter=0;" edge="1" parent="1" source="i2tNPv83OjAkMCDNKR-X-102" target="i2tNPv83OjAkMCDNKR-X-90">
          <mxGeometry relative="1" as="geometry">
            <Array as="points">
              <mxPoint x="1058" y="225" />
            </Array>
          </mxGeometry>
        </mxCell>
        <mxCell id="i2tNPv83OjAkMCDNKR-X-102" value="ID surat" style="ellipse;whiteSpace=wrap;html=1;fillColor=#B9E0A5;" parent="1" vertex="1">
          <mxGeometry x="930" y="200" width="110" height="50" as="geometry" />
        </mxCell>
        <mxCell id="i2tNPv83OjAkMCDNKR-X-114" value="Surat" style="rounded=0;whiteSpace=wrap;html=1;fillColor=#99CCFF;" parent="1" vertex="1">
          <mxGeometry x="1191" y="470" width="120" height="60" as="geometry" />
        </mxCell>
        <mxCell id="I7K3LM8rK5Hawv72wFrH-14" style="edgeStyle=orthogonalEdgeStyle;rounded=0;orthogonalLoop=1;jettySize=auto;html=1;entryX=0.575;entryY=1;entryDx=0;entryDy=0;entryPerimeter=0;exitX=0;exitY=0.5;exitDx=0;exitDy=0;" edge="1" parent="1" source="i2tNPv83OjAkMCDNKR-X-116" target="i2tNPv83OjAkMCDNKR-X-114">
          <mxGeometry relative="1" as="geometry">
            <Array as="points">
              <mxPoint x="1260" y="575" />
            </Array>
          </mxGeometry>
        </mxCell>
        <mxCell id="i2tNPv83OjAkMCDNKR-X-116" value="Nama Surat" style="ellipse;whiteSpace=wrap;html=1;fillColor=#B9E0A5;" parent="1" vertex="1">
          <mxGeometry x="1270" y="550" width="110" height="50" as="geometry" />
        </mxCell>
        <mxCell id="I7K3LM8rK5Hawv72wFrH-13" style="edgeStyle=orthogonalEdgeStyle;rounded=0;orthogonalLoop=1;jettySize=auto;html=1;entryX=0.408;entryY=1;entryDx=0;entryDy=0;entryPerimeter=0;exitX=1;exitY=0.5;exitDx=0;exitDy=0;" edge="1" parent="1" source="i2tNPv83OjAkMCDNKR-X-118" target="i2tNPv83OjAkMCDNKR-X-114">
          <mxGeometry relative="1" as="geometry">
            <mxPoint x="1240" y="590" as="targetPoint" />
            <Array as="points">
              <mxPoint x="1240" y="575" />
            </Array>
          </mxGeometry>
        </mxCell>
        <mxCell id="i2tNPv83OjAkMCDNKR-X-118" value="ID surat" style="ellipse;whiteSpace=wrap;html=1;fillColor=#B9E0A5;" parent="1" vertex="1">
          <mxGeometry x="1120" y="550" width="110" height="50" as="geometry" />
        </mxCell>
        <mxCell id="i2tNPv83OjAkMCDNKR-X-120" value="Berada pada" style="rhombus;whiteSpace=wrap;html=1;fillColor=#FFF2CC;" parent="1" vertex="1">
          <mxGeometry x="1181" y="320" width="130" height="80" as="geometry" />
        </mxCell>
        <mxCell id="i2tNPv83OjAkMCDNKR-X-124" value="Memuat" style="rhombus;whiteSpace=wrap;html=1;fillColor=#FFF2CC;" parent="1" vertex="1">
          <mxGeometry x="715" y="520" width="130" height="80" as="geometry" />
        </mxCell>
        <mxCell id="i2tNPv83OjAkMCDNKR-X-133" value="" style="edgeStyle=entityRelationEdgeStyle;fontSize=12;html=1;endArrow=ERmandOne;rounded=0;entryX=1;entryY=0.5;entryDx=0;entryDy=0;exitX=0;exitY=0.5;exitDx=0;exitDy=0;" parent="1" source="i2tNPv83OjAkMCDNKR-X-55" target="i2tNPv83OjAkMCDNKR-X-2" edge="1">
          <mxGeometry width="100" height="100" relative="1" as="geometry">
            <mxPoint x="270" y="320" as="sourcePoint" />
            <mxPoint x="370" y="220" as="targetPoint" />
          </mxGeometry>
        </mxCell>
        <mxCell id="i2tNPv83OjAkMCDNKR-X-134" value="" style="edgeStyle=entityRelationEdgeStyle;fontSize=12;html=1;endArrow=ERzeroToMany;endFill=1;rounded=0;exitX=1;exitY=0.5;exitDx=0;exitDy=0;entryX=0;entryY=0.5;entryDx=0;entryDy=0;" parent="1" source="i2tNPv83OjAkMCDNKR-X-55" target="i2tNPv83OjAkMCDNKR-X-42" edge="1">
          <mxGeometry width="100" height="100" relative="1" as="geometry">
            <mxPoint x="270" y="320" as="sourcePoint" />
            <mxPoint x="370" y="220" as="targetPoint" />
          </mxGeometry>
        </mxCell>
        <mxCell id="i2tNPv83OjAkMCDNKR-X-136" value="" style="edgeStyle=orthogonalEdgeStyle;fontSize=12;html=1;endArrow=ERmandOne;rounded=0;entryX=1.015;entryY=0.425;entryDx=0;entryDy=0;entryPerimeter=0;" parent="1" source="i2tNPv83OjAkMCDNKR-X-77" target="i2tNPv83OjAkMCDNKR-X-42" edge="1">
          <mxGeometry width="100" height="100" relative="1" as="geometry">
            <mxPoint x="650" y="320" as="sourcePoint" />
            <mxPoint x="660" y="270" as="targetPoint" />
            <Array as="points">
              <mxPoint x="760" y="420" />
              <mxPoint x="760" y="255" />
            </Array>
          </mxGeometry>
        </mxCell>
        <mxCell id="i2tNPv83OjAkMCDNKR-X-140" value="" style="edgeStyle=entityRelationEdgeStyle;fontSize=12;html=1;endArrow=ERmandOne;rounded=0;entryX=1;entryY=0.5;entryDx=0;entryDy=0;exitX=0;exitY=0.5;exitDx=0;exitDy=0;" parent="1" source="i2tNPv83OjAkMCDNKR-X-124" target="i2tNPv83OjAkMCDNKR-X-58" edge="1">
          <mxGeometry width="100" height="100" relative="1" as="geometry">
            <mxPoint x="660" y="360" as="sourcePoint" />
            <mxPoint x="760" y="260" as="targetPoint" />
          </mxGeometry>
        </mxCell>
        <mxCell id="i2tNPv83OjAkMCDNKR-X-141" value="" style="edgeStyle=entityRelationEdgeStyle;fontSize=12;html=1;endArrow=ERzeroToMany;endFill=1;rounded=0;exitX=1;exitY=0.5;exitDx=0;exitDy=0;entryX=0;entryY=0.5;entryDx=0;entryDy=0;" parent="1" source="i2tNPv83OjAkMCDNKR-X-124" target="i2tNPv83OjAkMCDNKR-X-81" edge="1">
          <mxGeometry width="100" height="100" relative="1" as="geometry">
            <mxPoint x="660" y="360" as="sourcePoint" />
            <mxPoint x="760" y="260" as="targetPoint" />
          </mxGeometry>
        </mxCell>
        <mxCell id="i2tNPv83OjAkMCDNKR-X-142" value="" style="edgeStyle=orthogonalEdgeStyle;fontSize=12;html=1;endArrow=ERoneToMany;rounded=0;exitX=1;exitY=0.5;exitDx=0;exitDy=0;entryX=1;entryY=0.5;entryDx=0;entryDy=0;" parent="1" source="i2tNPv83OjAkMCDNKR-X-111" target="i2tNPv83OjAkMCDNKR-X-81" edge="1">
          <mxGeometry width="100" height="100" relative="1" as="geometry">
            <mxPoint x="970" y="360" as="sourcePoint" />
            <mxPoint x="1070" y="260" as="targetPoint" />
            <Array as="points">
              <mxPoint x="1080" y="460" />
              <mxPoint x="1080" y="560" />
            </Array>
          </mxGeometry>
        </mxCell>
        <mxCell id="i2tNPv83OjAkMCDNKR-X-143" value="" style="edgeStyle=orthogonalEdgeStyle;fontSize=12;html=1;endArrow=ERmandOne;rounded=0;exitX=0;exitY=0.5;exitDx=0;exitDy=0;entryX=0;entryY=0.5;entryDx=0;entryDy=0;" parent="1" source="i2tNPv83OjAkMCDNKR-X-111" target="i2tNPv83OjAkMCDNKR-X-90" edge="1">
          <mxGeometry width="100" height="100" relative="1" as="geometry">
            <mxPoint x="970" y="360" as="sourcePoint" />
            <mxPoint x="1070" y="260" as="targetPoint" />
            <Array as="points">
              <mxPoint x="880" y="460" />
              <mxPoint x="880" y="360" />
            </Array>
          </mxGeometry>
        </mxCell>
        <mxCell id="i2tNPv83OjAkMCDNKR-X-111" value="Berisi" style="rhombus;whiteSpace=wrap;html=1;fillColor=#FFF2CC;" parent="1" vertex="1">
          <mxGeometry x="915" y="420" width="130" height="80" as="geometry" />
        </mxCell>
        <mxCell id="i2tNPv83OjAkMCDNKR-X-144" value="" style="edgeStyle=orthogonalEdgeStyle;fontSize=12;html=1;endArrow=ERoneToMany;rounded=0;entryX=1;entryY=0.5;entryDx=0;entryDy=0;exitX=0;exitY=0.5;exitDx=0;exitDy=0;" parent="1" source="i2tNPv83OjAkMCDNKR-X-120" target="i2tNPv83OjAkMCDNKR-X-90" edge="1">
          <mxGeometry width="100" height="100" relative="1" as="geometry">
            <mxPoint x="970" y="360" as="sourcePoint" />
            <mxPoint x="1070" y="260" as="targetPoint" />
          </mxGeometry>
        </mxCell>
        <mxCell id="i2tNPv83OjAkMCDNKR-X-145" value="" style="edgeStyle=orthogonalEdgeStyle;fontSize=12;html=1;endArrow=ERmandOne;rounded=0;exitX=1;exitY=0.5;exitDx=0;exitDy=0;entryX=1;entryY=0.5;entryDx=0;entryDy=0;" parent="1" source="i2tNPv83OjAkMCDNKR-X-120" edge="1" target="i2tNPv83OjAkMCDNKR-X-114">
          <mxGeometry width="100" height="100" relative="1" as="geometry">
            <mxPoint x="970" y="360" as="sourcePoint" />
            <mxPoint x="1180" y="560" as="targetPoint" />
            <Array as="points">
              <mxPoint x="1330" y="360" />
              <mxPoint x="1330" y="500" />
            </Array>
          </mxGeometry>
        </mxCell>
        <mxCell id="I7K3LM8rK5Hawv72wFrH-5" style="edgeStyle=orthogonalEdgeStyle;rounded=0;orthogonalLoop=1;jettySize=auto;html=1;" edge="1" parent="1" source="I7K3LM8rK5Hawv72wFrH-4" target="i2tNPv83OjAkMCDNKR-X-42">
          <mxGeometry relative="1" as="geometry" />
        </mxCell>
        <mxCell id="I7K3LM8rK5Hawv72wFrH-4" value="Nama" style="ellipse;whiteSpace=wrap;html=1;fillColor=#B9E0A5;" vertex="1" parent="1">
          <mxGeometry x="610" width="110" height="50" as="geometry" />
        </mxCell>
        <mxCell id="I7K3LM8rK5Hawv72wFrH-20" style="edgeStyle=orthogonalEdgeStyle;rounded=0;orthogonalLoop=1;jettySize=auto;html=1;entryX=0.617;entryY=0;entryDx=0;entryDy=0;entryPerimeter=0;" edge="1" parent="1" source="I7K3LM8rK5Hawv72wFrH-19" target="i2tNPv83OjAkMCDNKR-X-90">
          <mxGeometry relative="1" as="geometry">
            <Array as="points">
              <mxPoint x="1080" y="225" />
            </Array>
          </mxGeometry>
        </mxCell>
        <mxCell id="I7K3LM8rK5Hawv72wFrH-19" value="Juz" style="ellipse;whiteSpace=wrap;html=1;fillColor=#B9E0A5;" vertex="1" parent="1">
          <mxGeometry x="1100" y="200" width="110" height="50" as="geometry" />
        </mxCell>
      </root>
    </mxGraphModel>
  </diagram>
</mxfile>
